# Blender 3.6.2
# www.blender.org
mtllib torus.mtl
o Torus.001
v 1.520000 0.000000 0.000000
v 1.260000 0.450333 0.000000
v 0.740000 0.450333 0.000000
v 0.480000 0.000000 0.000000
v 0.740000 -0.450333 0.000000
v 1.260000 -0.450333 0.000000
v 1.164387 0.000000 -0.977037
v 0.965216 0.450333 -0.809913
v 0.566873 0.450333 -0.475663
v 0.367701 0.000000 -0.308538
v 0.566873 -0.450333 -0.475663
v 0.965216 -0.450333 -0.809913
v 0.263945 0.000000 -1.496908
v 0.218797 0.450333 -1.240858
v 0.128500 0.450333 -0.728758
v 0.083351 0.000000 -0.472708
v 0.128500 -0.450333 -0.728758
v 0.218797 -0.450333 -1.240858
v -0.760000 0.000000 -1.316359
v -0.630000 0.450333 -1.091192
v -0.370000 0.450333 -0.640859
v -0.240000 0.000000 -0.415692
v -0.370000 -0.450333 -0.640859
v -0.630000 -0.450333 -1.091192
v -1.428333 0.000000 -0.519871
v -1.184013 0.450333 -0.430946
v -0.695372 0.450333 -0.253095
v -0.451052 0.000000 -0.164170
v -0.695372 -0.450333 -0.253095
v -1.184013 -0.450333 -0.430946
v -1.428333 0.000000 0.519870
v -1.184013 0.450333 0.430945
v -0.695373 0.450333 0.253095
v -0.451053 0.000000 0.164170
v -0.695373 -0.450333 0.253095
v -1.184013 -0.450333 0.430945
v -0.760000 0.000000 1.316359
v -0.630000 0.450333 1.091192
v -0.370000 0.450333 0.640859
v -0.240000 0.000000 0.415692
v -0.370000 -0.450333 0.640859
v -0.630000 -0.450333 1.091192
v 0.263945 0.000000 1.496908
v 0.218797 0.450333 1.240858
v 0.128500 0.450333 0.728758
v 0.083351 0.000000 0.472708
v 0.128500 -0.450333 0.728758
v 0.218797 -0.450333 1.240858
v 1.164387 0.000000 0.977037
v 0.965216 0.450333 0.809913
v 0.566873 0.450333 0.475663
v 0.367701 0.000000 0.308538
v 0.566873 -0.450333 0.475663
v 0.965216 -0.450333 0.809913
vn 0.8260 0.4769 -0.3006
vn -0.0000 1.0000 -0.0000
vn -0.8260 0.4769 0.3006
vn -0.8260 -0.4769 0.3006
vn -0.0000 -1.0000 -0.0000
vn 0.8260 -0.4769 -0.3006
vn 0.4395 0.4769 -0.7612
vn -0.4395 0.4769 0.7612
vn -0.4395 -0.4769 0.7612
vn 0.4395 -0.4769 -0.7612
vn -0.1526 0.4769 -0.8656
vn 0.1526 0.4769 0.8656
vn 0.1526 -0.4769 0.8656
vn -0.1526 -0.4769 -0.8656
vn -0.6733 0.4769 -0.5650
vn 0.6733 0.4769 0.5650
vn 0.6733 -0.4769 0.5650
vn -0.6733 -0.4769 -0.5650
vn -0.8790 0.4769 -0.0000
vn 0.8790 0.4769 -0.0000
vn 0.8790 -0.4769 -0.0000
vn -0.8790 -0.4769 -0.0000
vn -0.6733 0.4769 0.5650
vn 0.6733 0.4769 -0.5650
vn 0.6733 -0.4769 -0.5650
vn -0.6733 -0.4769 0.5650
vn -0.1526 0.4769 0.8656
vn 0.1526 0.4769 -0.8656
vn 0.1526 -0.4769 -0.8656
vn -0.1526 -0.4769 0.8656
vn 0.4395 0.4769 0.7612
vn -0.4395 0.4769 -0.7612
vn -0.4395 -0.4769 -0.7612
vn 0.4395 -0.4769 0.7612
vn 0.8260 0.4769 0.3006
vn -0.8260 0.4769 -0.3006
vn -0.8260 -0.4769 -0.3006
vn 0.8260 -0.4769 0.3006
vt 0.666667 0.500000
vt 0.555556 0.666667
vt 0.555556 0.500000
vt 0.666667 0.666667
vt 0.555556 0.833333
vt 0.666667 0.833333
vt 0.555556 1.000000
vt 0.555556 -0.000000
vt 0.666667 0.166667
vt 0.555556 0.166667
vt 0.666667 0.333333
vt 0.555556 0.333333
vt 0.777778 0.500000
vt 0.777778 0.666667
vt 0.777778 0.833333
vt 0.666667 1.000000
vt 0.777778 -0.000000
vt 0.666667 -0.000000
vt 0.777778 0.333333
vt 0.888889 0.666667
vt 0.888889 0.833333
vt 0.777778 1.000000
vt 0.888889 -0.000000
vt 0.777778 0.166667
vt 0.888889 0.166667
vt 0.888889 0.333333
vt 1.000000 0.500000
vt 0.888889 0.500000
vt 1.000000 0.666667
vt 1.000000 0.833333
vt 0.888889 1.000000
vt 1.000000 -0.000000
vt 1.000000 0.166667
vt 1.000000 0.333333
vt 0.000000 0.500000
vt 0.111111 0.666667
vt 0.000000 0.666667
vt 0.000000 0.833333
vt 0.111111 0.833333
vt 0.000000 1.000000
vt 0.111111 -0.000000
vt 0.000000 0.166667
vt 0.000000 -0.000000
vt 0.111111 0.166667
vt 0.000000 0.333333
vt 0.111111 0.333333
vt 0.222222 0.500000
vt 0.111111 0.500000
vt 0.222222 0.666667
vt 0.222222 0.833333
vt 0.111111 1.000000
vt 0.222222 -0.000000
vt 0.222222 0.166667
vt 0.222222 0.333333
vt 0.333333 0.666667
vt 0.333333 0.833333
vt 0.222222 1.000000
vt 0.333333 -0.000000
vt 0.333333 0.333333
vt 0.333333 0.500000
vt 0.444444 0.666667
vt 0.444444 0.833333
vt 0.333333 1.000000
vt 0.444444 -0.000000
vt 0.333333 0.166667
vt 0.444444 0.166667
vt 0.444444 0.333333
vt 0.444444 0.500000
vt 0.444444 1.000000
vt 1.000000 1.000000
s 0
f 7/1/1 2/2/1 1/3/1
f 8/4/2 3/5/2 2/2/2
f 9/6/3 4/7/3 3/5/3
f 4/8/4 11/9/4 5/10/4
f 5/10/5 12/11/5 6/12/5
f 12/11/6 1/3/6 6/12/6
f 13/13/7 8/4/7 7/1/7
f 14/14/2 9/6/2 8/4/2
f 15/15/8 10/16/8 9/6/8
f 16/17/9 11/9/9 10/18/9
f 11/9/5 18/19/5 12/11/5
f 18/19/10 7/1/10 12/11/10
f 13/13/11 20/20/11 14/14/11
f 14/14/2 21/21/2 15/15/2
f 21/21/12 16/22/12 15/15/12
f 22/23/13 17/24/13 16/17/13
f 23/25/5 18/19/5 17/24/5
f 24/26/14 13/13/14 18/19/14
f 25/27/15 20/20/15 19/28/15
f 26/29/2 21/21/2 20/20/2
f 27/30/16 22/31/16 21/21/16
f 28/32/17 23/25/17 22/23/17
f 29/33/5 24/26/5 23/25/5
f 30/34/18 19/28/18 24/26/18
f 25/35/19 32/36/19 26/37/19
f 32/36/2 27/38/2 26/37/2
f 33/39/20 28/40/20 27/38/20
f 34/41/21 29/42/21 28/43/21
f 35/44/5 30/45/5 29/42/5
f 36/46/22 25/35/22 30/45/22
f 37/47/23 32/36/23 31/48/23
f 38/49/2 33/39/2 32/36/2
f 39/50/24 34/51/24 33/39/24
f 40/52/25 35/44/25 34/41/25
f 41/53/5 36/46/5 35/44/5
f 42/54/26 31/48/26 36/46/26
f 37/47/27 44/55/27 38/49/27
f 44/55/2 39/50/2 38/49/2
f 45/56/28 40/57/28 39/50/28
f 46/58/29 41/53/29 40/52/29
f 41/53/5 48/59/5 42/54/5
f 48/59/30 37/47/30 42/54/30
f 43/60/31 50/61/31 44/55/31
f 44/55/2 51/62/2 45/56/2
f 51/62/32 46/63/32 45/56/32
f 52/64/33 47/65/33 46/58/33
f 53/66/5 48/59/5 47/65/5
f 54/67/34 43/60/34 48/59/34
f 1/3/35 50/61/35 49/68/35
f 50/61/2 3/5/2 51/62/2
f 3/5/36 52/69/36 51/62/36
f 4/8/37 53/66/37 52/64/37
f 5/10/5 54/67/5 53/66/5
f 54/67/38 1/3/38 49/68/38
f 7/1/1 8/4/1 2/2/1
f 8/4/2 9/6/2 3/5/2
f 9/6/3 10/16/3 4/7/3
f 4/8/4 10/18/4 11/9/4
f 5/10/5 11/9/5 12/11/5
f 12/11/6 7/1/6 1/3/6
f 13/13/7 14/14/7 8/4/7
f 14/14/2 15/15/2 9/6/2
f 15/15/8 16/22/8 10/16/8
f 16/17/9 17/24/9 11/9/9
f 11/9/5 17/24/5 18/19/5
f 18/19/10 13/13/10 7/1/10
f 13/13/11 19/28/11 20/20/11
f 14/14/2 20/20/2 21/21/2
f 21/21/12 22/31/12 16/22/12
f 22/23/13 23/25/13 17/24/13
f 23/25/5 24/26/5 18/19/5
f 24/26/14 19/28/14 13/13/14
f 25/27/15 26/29/15 20/20/15
f 26/29/2 27/30/2 21/21/2
f 27/30/16 28/70/16 22/31/16
f 28/32/17 29/33/17 23/25/17
f 29/33/5 30/34/5 24/26/5
f 30/34/18 25/27/18 19/28/18
f 25/35/19 31/48/19 32/36/19
f 32/36/2 33/39/2 27/38/2
f 33/39/20 34/51/20 28/40/20
f 34/41/21 35/44/21 29/42/21
f 35/44/5 36/46/5 30/45/5
f 36/46/22 31/48/22 25/35/22
f 37/47/23 38/49/23 32/36/23
f 38/49/2 39/50/2 33/39/2
f 39/50/24 40/57/24 34/51/24
f 40/52/25 41/53/25 35/44/25
f 41/53/5 42/54/5 36/46/5
f 42/54/26 37/47/26 31/48/26
f 37/47/27 43/60/27 44/55/27
f 44/55/2 45/56/2 39/50/2
f 45/56/28 46/63/28 40/57/28
f 46/58/29 47/65/29 41/53/29
f 41/53/5 47/65/5 48/59/5
f 48/59/30 43/60/30 37/47/30
f 43/60/31 49/68/31 50/61/31
f 44/55/2 50/61/2 51/62/2
f 51/62/32 52/69/32 46/63/32
f 52/64/33 53/66/33 47/65/33
f 53/66/5 54/67/5 48/59/5
f 54/67/34 49/68/34 43/60/34
f 1/3/35 2/2/35 50/61/35
f 50/61/2 2/2/2 3/5/2
f 3/5/36 4/7/36 52/69/36
f 4/8/37 5/10/37 53/66/37
f 5/10/5 6/12/5 54/67/5
f 54/67/38 6/12/38 1/3/38
